<?xml version="1.0" encoding="utf-8"?>
<!-- Generator: Adobe Illustrator 18.1.1, SVG Export Plug-In . SVG Version: 6.00 Build 0)  -->
<svg version="1.1" id="Layer_1" xmlns="http://www.w3.org/2000/svg" xmlns:xlink="http://www.w3.org/1999/xlink" x="0px" y="0px"
	 viewBox="0 0 640 1136" enable-background="new 0 0 640 1136" xml:space="preserve">
<g>
	<polygon fill="none" stroke="#E32027" stroke-width="3" stroke-miterlimit="10" points="93.7,223.5 102.4,180.9 59.6,180.9 
		67.8,223.5 	"/>
	<line fill="none" stroke="#E32027" stroke-width="3" stroke-miterlimit="10" x1="70.3" y1="174.5" x2="91.7" y2="174.5"/>
</g>
<text transform="matrix(1 0 0 1 38.8584 436.5)" fill="none" stroke="#00ADEE" stroke-width="2" stroke-miterlimit="10" font-family="'Wingdings-Regular'" font-size="70"></text>
<path fill="none" stroke="#00ADEE" stroke-width="4" stroke-miterlimit="10" d="M93.6,458l-39.3,40 M54,458.4l40,39.3"/>
<path fill="none" stroke="#00ADEE" stroke-width="4" stroke-miterlimit="10" d="M59.1,544 M81.1,521.5l-21.8,22.1l21.8,21.9"/>
<path fill="none" stroke="#00ADEE" stroke-width="4" stroke-miterlimit="10" d="M47.6,615 M70.1,592.5l-22.3,22.1l22.3,21.9
	 M47.6,615l44,0.1"/>
<g>
	<circle fill="#00ADEE" cx="65.7" cy="666" r="4"/>
	<circle fill="#00ADEE" cx="65.7" cy="684.5" r="4"/>
	<circle fill="#00ADEE" cx="65.7" cy="703" r="4"/>
</g>
<g>
	<polyline fill="none" stroke="#00ADEE" stroke-width="4" stroke-miterlimit="10" points="42.3,832.1 58,849 90.3,813.6 	"/>
</g>
<g>
	<path fill="none" stroke="#B8529E" stroke-width="2" stroke-miterlimit="10" d="M45,872"/>
	<rect x="45" y="886" fill="#00ADEE" width="50" height="30"/>
	<line fill="none" stroke="#00ADEE" stroke-width="4" stroke-miterlimit="10" x1="49" y1="881" x2="59" y2="881"/>
	<circle fill="#FFFFFF" cx="53.3" cy="894" r="3.5"/>
	<circle fill="none" stroke="#FFFFFF" stroke-width="2" stroke-miterlimit="10" cx="75.3" cy="899.5" r="13"/>
	<circle fill="#00ADEE" cx="74.3" cy="901" r="18.5"/>
	<circle fill="none" stroke="#FFFFFF" stroke-width="3" stroke-miterlimit="10" cx="74.3" cy="901" r="12"/>
</g>
<path fill="#00ADEE" d="M230,244c0,23.2-18.8,42-42,42s-42-18.8-42-42s18.8-42,42-42S230,220.8,230,244z"/>
<g>
	<polygon fill="none" stroke="#00ADEE" stroke-width="2" stroke-miterlimit="10" points="47.3,949.3 38.5,937.7 108.5,954.6 
		56.6,974.3 51.1,962.6 45,966.3 	"/>
	<polygon fill="#00ADEE" points="52.2,954.8 89.7,956 52.2,950.3 47.8,960.7 	"/>
</g>
<g>
	<g>
		<path fill="none" stroke="#00ADEE" stroke-width="2" stroke-miterlimit="10" d="M25.8,1018.1l33-11.5l9.7,13c0-0.2,0-0.3,0-0.5
			c0-13.3-9.6-24-21.3-24c-11.8,0-21.3,10.7-21.3,24"/>
		<path fill="none" stroke="#00ADEE" stroke-width="2" stroke-miterlimit="10" d="M68.4,1023c-0.2,13-9.7,23.5-21.3,23.5
			c-11.6,0-21-10.4-21.3-23.3"/>
		<line fill="none" stroke="#FFFFFF" stroke-width="6" stroke-miterlimit="10" x1="22.8" y1="1022.1" x2="71.8" y2="1022.1"/>
		<ellipse fill="#00ADEE" stroke="#00ADEE" stroke-width="2" stroke-miterlimit="10" cx="40.7" cy="1022.6" rx="2.3" ry="3"/>
		<ellipse fill="#00ADEE" stroke="#00ADEE" stroke-width="2" stroke-miterlimit="10" cx="53.5" cy="1022.6" rx="2.3" ry="3"/>
		<path fill="none" stroke="#00ADEE" stroke-width="2" stroke-miterlimit="10" d="M56.6,1031c-1.6,3.7-5.2,6.3-9.5,6.3
			s-7.9-2.6-9.5-6.3"/>
	</g>
	<path fill="#00ADEE" stroke="#00ADEE" stroke-width="2" stroke-miterlimit="10" d="M81.1,1022.1"/>
	<g>
		<g>
			<path fill="none" stroke="#00ADEE" stroke-width="2" stroke-miterlimit="10" d="M126.2,1032.4c6.7,1.2,12-5.6,12-5.6
				s-0.4,18.2-10.8,18.3c-3.3,0.1-7.2-6.4-8.7-10.3c-2.4-6.2-3-13.4-3-13.4S119.8,1031.3,126.2,1032.4z"/>
			
				<ellipse transform="matrix(-0.9998 1.923720e-002 -1.923720e-002 -0.9998 219.4245 2047.1031)" fill="#FFFFFF" cx="99.9" cy="1024.6" rx="22.7" ry="24.9"/>
		</g>
		<path fill="#00ADEE" stroke="#00ADEE" stroke-width="2" stroke-miterlimit="10" d="M130.1,1022"/>
		<path fill="none" stroke="#00ADEE" stroke-width="2" stroke-miterlimit="10" d="M118.4,1023c-0.2,13-9.7,23.5-21.3,23.5
			c-11.6,0-21-10.4-21.3-23.3"/>
		<path fill="none" stroke="#00ADEE" stroke-width="2" stroke-miterlimit="10" d="M106.6,1031.1c-1.6,3.7-5.2,6.3-9.5,6.3
			s-7.9-2.6-9.5-6.3"/>
		<path fill="none" stroke="#00ADEE" stroke-width="2" stroke-miterlimit="10" d="M75.8,1019.6l33-11.5l9.7,13c0-0.2,0-0.3,0-0.5
			c0-13.3-9.6-24-21.3-24c-11.8,0-21.3,10.7-21.3,24"/>
		<line fill="none" stroke="#FFFFFF" stroke-width="6" stroke-miterlimit="10" x1="72.8" y1="1022.1" x2="121.8" y2="1022.1"/>
		<ellipse fill="#00ADEE" stroke="#00ADEE" stroke-width="2" stroke-miterlimit="10" cx="90.7" cy="1022.7" rx="2.3" ry="3"/>
		<ellipse fill="#00ADEE" stroke="#00ADEE" stroke-width="2" stroke-miterlimit="10" cx="103.5" cy="1022.7" rx="2.3" ry="3"/>
	</g>
</g>
<rect x="63" y="99" fill="#FFFFFF" stroke="#00ADEE" stroke-width="4" stroke-miterlimit="10" width="34" height="50"/>
<path fill="none" stroke="#00ADEE" stroke-width="4" stroke-miterlimit="10" d="M182.8,464l-23.6,24 M159,464.2l24,23.6"/>
<path fill="none" stroke="#00ADEE" stroke-width="4" stroke-miterlimit="10" d="M168.8,105l0.4,44 M147,127.2l44-0.4"/>
<polygon fill="#FFFFFF" stroke="#FFFFFF" stroke-width="2" stroke-miterlimit="10" points="163,245.2 193.7,217.3 213,232.3 
	213,243.7 182.3,271.6 163,256.6 "/>
<g>
	<polygon fill="#FFCCFF" stroke="#FF99CC" stroke-width="2" stroke-miterlimit="10" points="47.5,271.3 79.4,242.4 99.5,257.9 
		99.5,269.8 67.6,298.8 47.5,283.2 	"/>
	<polygon opacity="0.5" fill="#FF99CC" points="67.5,299.3 99.4,270.3 99.4,258.4 67.5,287.4 	"/>
</g>
<g>
	
		<rect x="56" y="740" transform="matrix(0.9659 0.2588 -0.2588 0.9659 200.4753 7.1715)" fill="#FFFFFF" stroke="#00ADEE" stroke-width="2" stroke-miterlimit="10" width="34" height="50"/>
	<rect x="40" y="744" fill="#FFFFFF" width="38" height="58"/>
	<rect x="38" y="751" fill="#FFFFFF" stroke="#00ADEE" stroke-width="2" stroke-miterlimit="10" width="34" height="50"/>
	<g>
		<path fill="none" stroke="#00ADEE" stroke-width="2" stroke-miterlimit="10" d="M44.3,777.7c5.9-0.6,18.9-6.1,22.8,0.8
			c-5.2,2-19.9-0.6-21.8,5.6c5.9,1.1,12.4-0.3,18.2,0"/>
		<path fill="none" stroke="#00ADEE" stroke-width="2" stroke-miterlimit="10" d="M67.1,790.1c-5.9,0.6-18.9,6.1-22.8-0.8
			c5.2-2,19.9,0.6,21.8-5.6c-5.9-1.1-12.4,0.3-18.2,0"/>
	</g>
	<path fill="none" stroke="#00ADEE" stroke-width="2" stroke-miterlimit="10" d="M52.5,759.3c-2.2-0.6-4.9-1.2-6.4,1.2
		c-1.2,2-0.2,6.1,1,7.6c4.9,6.1,14.2-2,9.1-7.6"/>
</g>
<g>
	<g>
		<path fill="none" stroke="#A6A8AB" stroke-width="4" stroke-miterlimit="10" d="M50.5,352.3"/>
		<polyline fill="none" stroke="#A6A8AB" stroke-width="4" stroke-miterlimit="10" points="51.5,353.3 47.6,366 60.3,362.1 		"/>
		<path fill="none" stroke="#A6A8AB" stroke-width="4" stroke-miterlimit="10" d="M53.5,351.8"/>
	</g>
	<path fill="none" stroke="#00ADEE" stroke-width="2" stroke-miterlimit="10" d="M71.9,361.2"/>
	<g>
		<path fill="#F7B93C" d="M97.1,315.9c4.8,4.8,4.1,8.4,4.1,8.4l-16.8,16.8l-19.2,19.2c0,0-0.5-4.7-4.7-8.8"/>
		<path fill="#FCC96D" d="M60.8,351.6c-4.2-4.2-7.8-3.6-7.8-3.6l19.2-19.2L88.9,312c0,0,3.6-0.7,8.4,4.1"/>
	</g>
	<path fill="none" stroke="#00ADEE" stroke-width="2" stroke-miterlimit="10" d="M71.9,330.6"/>
	<path fill="none" stroke="#EB008B" stroke-width="2" stroke-miterlimit="10" d="M76.6,324.5"/>
	<path fill="none" stroke="#FFFFFF" stroke-width="6" stroke-miterlimit="10" d="M93.8,336c0,0,0.9-4.7-5.4-11
		c-6.3-6.3-11-5.4-11-5.4"/>
	<path fill="none" stroke="#EB008B" stroke-width="2" stroke-miterlimit="10" d="M55,346.1"/>
</g>
<path fill="#00ADEE" d="M231,343c0,23.2-18.8,42-42,42s-42-18.8-42-42s18.8-42,42-42S231,319.8,231,343z"/>
<g>
	<path fill="none" stroke="#00ADEE" stroke-width="2" stroke-miterlimit="10" d="M187.5,363.2"/>
	<g>
		<path opacity="0.8" fill="#FFFFFF" d="M212.7,317.9c4.8,4.8,4.1,8.4,4.1,8.4L200,343.1l-19.2,19.2c0,0-0.5-4.7-4.7-8.8"/>
		<path fill="#FFFFFF" d="M176.3,353.6c-4.2-4.2-7.8-3.6-7.8-3.6l19.2-19.2l16.8-16.8c0,0,3.6-0.7,8.4,4.1"/>
	</g>
	<path fill="none" stroke="#00ADEE" stroke-width="2" stroke-miterlimit="10" d="M187.5,332.6"/>
	<path fill="none" stroke="#EB008B" stroke-width="2" stroke-miterlimit="10" d="M192.2,326.5"/>
	<path fill="none" stroke="#00ADEE" stroke-width="4" stroke-miterlimit="10" d="M210.5,338.1c0,0,1-5-5.7-11.8
		c-6.7-6.7-11.8-5.7-11.8-5.7"/>
	<path fill="none" stroke="#EB008B" stroke-width="2" stroke-miterlimit="10" d="M170.6,348.1"/>
	<path fill="#FFFFFF" d="M180.8,362.3l-18.5,6l6.3-18.3c0,0,3.7-1.6,8.4,3.1C181.9,358,180.8,362.3,180.8,362.3z"/>
</g>
<polygon opacity="0.2" fill="#00ADEE" points="181.9,273 213.8,244 213.8,232 181.9,261 "/>
<path fill="#00ADEE" d="M332,244c0,23.2-18.8,42-42,42s-42-18.8-42-42s18.8-42,42-42S332,220.8,332,244z"/>
</svg>
