<?xml version="1.0" encoding="utf-8"?>
<!-- Generator: Adobe Illustrator 18.1.1, SVG Export Plug-In . SVG Version: 6.00 Build 0)  -->
<svg version="1.1" id="Layer_1" xmlns="http://www.w3.org/2000/svg" xmlns:xlink="http://www.w3.org/1999/xlink" x="0px" y="0px"
	 viewBox="0 0 1800 100" enable-background="new 0 0 1800 100" xml:space="preserve">
<g>
	<polygon fill="none" stroke="#E32027" stroke-width="3" stroke-miterlimit="10" points="112,57.4 120.7,14.8 77.7,14.8 86,57.4 	
		"/>
	<line fill="none" stroke="#E32027" stroke-width="3" stroke-miterlimit="10" x1="88.5" y1="8.4" x2="110" y2="8.4"/>
</g>
<text transform="matrix(1 0 0 1 566.7466 69.7824)" fill="none" stroke="#00ADEE" stroke-width="2" stroke-miterlimit="10" font-family="'Wingdings-Regular'" font-size="70"></text>
<path fill="none" stroke="#00ADEE" stroke-width="4" stroke-miterlimit="10" d="M693.9,8.4l-39.3,40 M654.2,8.8l40,39.3"/>
<path fill="none" stroke="#00ADEE" stroke-width="4" stroke-miterlimit="10" d="M771.3,30.8 M793.3,8.4l-21.8,22.1l21.8,21.9"/>
<path fill="none" stroke="#00ADEE" stroke-width="4" stroke-miterlimit="10" d="M815.9,30.8 M838.4,8.4L816,30.5l22.3,21.9
	 M815.9,30.8l44,0.1"/>
<g>
	<circle fill="#00ADEE" cx="887.9" cy="12.4" r="4"/>
	<circle fill="#00ADEE" cx="887.9" cy="30.9" r="4"/>
	<circle fill="#00ADEE" cx="887.9" cy="49.4" r="4"/>
</g>
<g>
	<polyline fill="none" stroke="#00ADEE" stroke-width="4" stroke-miterlimit="10" points="1011.5,26.7 1027.3,43.4 1059.5,8.4 	"/>
</g>
<g>
	<path fill="none" stroke="#B8529E" stroke-width="2" stroke-miterlimit="10" d="M1088.2,8.4"/>
	<rect x="1088.2" y="22.4" fill="#00ADEE" width="50" height="30"/>
	<line fill="none" stroke="#00ADEE" stroke-width="4" stroke-miterlimit="10" x1="1092.2" y1="17.4" x2="1102.2" y2="17.4"/>
	<ellipse fill="#FFFFFF" cx="1096.5" cy="30.2" rx="3.5" ry="3.5"/>
	<ellipse fill="none" stroke="#FFFFFF" stroke-width="2" stroke-miterlimit="10" cx="1118.5" cy="35.6" rx="13" ry="12.9"/>
	<ellipse fill="#00ADEE" cx="1117.5" cy="37.1" rx="18.5" ry="18.3"/>
	<ellipse fill="none" stroke="#FFFFFF" stroke-width="3" stroke-miterlimit="10" cx="1117.5" cy="37.1" rx="12" ry="11.9"/>
</g>
<g>
	<polygon fill="none" stroke="#00ADEE" stroke-width="2" stroke-miterlimit="10" points="1167.9,19.8 1159,8.4 1229,25 1177.2,44.4 
		1171.6,32.9 1165.5,36.5 	"/>
	<polygon fill="#00ADEE" points="1172.7,25.2 1210.2,26.4 1172.7,20.8 1168.4,31 	"/>
</g>
<g>
	<g>
		<path fill="none" stroke="#00ADEE" stroke-width="2" stroke-miterlimit="10" d="M1253.5,31.2l32.9-11.5l9.6,12.9
			c0-0.2,0-0.3,0-0.5c0-13.2-9.5-23.8-21.3-23.8s-21.3,10.7-21.3,23.8"/>
		<path fill="none" stroke="#00ADEE" stroke-width="2" stroke-miterlimit="10" d="M1296,36.1c-0.2,12.9-9.7,23.4-21.3,23.4
			c-11.5,0-20.9-10.3-21.3-23.2"/>
		<line fill="none" stroke="#FFFFFF" stroke-width="6" stroke-miterlimit="10" x1="1250.5" y1="35.2" x2="1299.4" y2="35.2"/>
		<ellipse fill="#00ADEE" stroke="#00ADEE" stroke-width="2" stroke-miterlimit="10" cx="1268.4" cy="35.7" rx="2.2" ry="3"/>
		<ellipse fill="#00ADEE" stroke="#00ADEE" stroke-width="2" stroke-miterlimit="10" cx="1281.1" cy="35.7" rx="2.2" ry="3"/>
		<path fill="none" stroke="#00ADEE" stroke-width="2" stroke-miterlimit="10" d="M1284.3,44.1c-1.6,3.7-5.2,6.3-9.5,6.3
			s-7.9-2.6-9.5-6.3"/>
	</g>
	<path fill="#00ADEE" stroke="#00ADEE" stroke-width="2" stroke-miterlimit="10" d="M1308.7,35.2"/>
	<g>
		<g>
			<path fill="none" stroke="#00ADEE" stroke-width="2" stroke-miterlimit="10" d="M1353.6,45.4c6.7,1.2,12-5.6,12-5.6
				s-0.4,18-10.8,18.2c-3.3,0.1-7.2-6.4-8.6-10.2c-2.4-6.1-3-13.3-3-13.3S1347.3,44.3,1353.6,45.4z"/>
			
				<ellipse transform="matrix(-0.9998 1.918189e-002 -1.918189e-002 -0.9998 2655.2041 49.89)" fill="#FFFFFF" cx="1327.4" cy="37.7" rx="22.7" ry="24.7"/>
		</g>
		<path fill="#00ADEE" stroke="#00ADEE" stroke-width="2" stroke-miterlimit="10" d="M1357.5,35.1"/>
		<path fill="none" stroke="#00ADEE" stroke-width="2" stroke-miterlimit="10" d="M1345.9,36.1c-0.2,12.9-9.7,23.4-21.3,23.4
			c-11.5,0-20.9-10.3-21.3-23.2"/>
		<path fill="none" stroke="#00ADEE" stroke-width="2" stroke-miterlimit="10" d="M1334.1,44.1c-1.6,3.7-5.2,6.3-9.5,6.3
			c-4.3,0-7.9-2.6-9.5-6.3"/>
		<path fill="none" stroke="#00ADEE" stroke-width="2" stroke-miterlimit="10" d="M1303.4,32.7l32.9-11.5l9.6,12.9
			c0-0.2,0-0.3,0-0.5c0-13.2-9.5-23.8-21.3-23.8s-21.3,10.7-21.3,23.8"/>
		<line fill="none" stroke="#FFFFFF" stroke-width="6" stroke-miterlimit="10" x1="1300.4" y1="35.2" x2="1349.2" y2="35.2"/>
		<ellipse fill="#00ADEE" stroke="#00ADEE" stroke-width="2" stroke-miterlimit="10" cx="1318.3" cy="35.8" rx="2.2" ry="3"/>
		<ellipse fill="#00ADEE" stroke="#00ADEE" stroke-width="2" stroke-miterlimit="10" cx="1331" cy="35.8" rx="2.2" ry="3"/>
	</g>
</g>
<rect x="7.2" y="8.4" fill="#FFFFFF" stroke="#00ADEE" stroke-width="4" stroke-miterlimit="10" width="34" height="50"/>
<path fill="none" stroke="#00ADEE" stroke-width="4" stroke-miterlimit="10" d="M745,8.4l-23.6,24 M721.2,8.6l24,23.6"/>
<path fill="none" stroke="#00ADEE" stroke-width="4" stroke-miterlimit="10" d="M174,8.4l0.4,44 M152.2,30.6l44-0.4"/>
<g>
	<polygon fill="#FFCCFF" stroke="#FF99CC" stroke-width="2" stroke-miterlimit="10" points="226.2,37.4 258.2,8.4 278.2,24 
		278.2,35.9 246.3,64.8 226.2,49.3 	"/>
	<polygon opacity="0.5" fill="#FF99CC" points="246.2,65.4 278.2,36.4 278.2,24.4 246.2,53.4 	"/>
</g>
<g>
	<polygon fill="#FFFFFF" stroke="#00ADEE" stroke-width="2" stroke-miterlimit="10" points="981.3,66.2 948.3,57.3 961.3,8.4 
		994.2,17.3 	"/>
	<rect x="938.2" y="16.4" fill="#FFFFFF" width="38" height="58"/>
	<rect x="936.2" y="23.4" fill="#FFFFFF" stroke="#00ADEE" stroke-width="2" stroke-miterlimit="10" width="34" height="50"/>
	<g>
		<path fill="none" stroke="#00ADEE" stroke-width="2" stroke-miterlimit="10" d="M942.4,50.2c5.9-0.6,19-6.2,22.9,0.8
			c-5.2,2-19.9-0.6-21.9,5.6c5.9,1.1,12.4-0.3,18.3,0"/>
		<path fill="none" stroke="#00ADEE" stroke-width="2" stroke-miterlimit="10" d="M965.3,62.8c-5.9,0.6-19,6.2-22.9-0.8
			c5.2-2,19.9,0.6,21.9-5.6c-5.9-1.1-12.4,0.3-18.3,0"/>
	</g>
	<path fill="none" stroke="#00ADEE" stroke-width="2" stroke-miterlimit="10" d="M950.7,31.5c-2.2-0.6-4.9-1.2-6.4,1.2
		c-1.2,2.1-0.2,6.2,1,7.7c4.9,6.2,14.3-2.1,9.1-7.7"/>
</g>
<g>
	<g>
		<path fill="none" stroke="#A6A8AB" stroke-width="4" stroke-miterlimit="10" d="M406.6,48.7"/>
		<polyline fill="none" stroke="#A6A8AB" stroke-width="4" stroke-miterlimit="10" points="407.6,49.7 403.7,62.4 416.3,58.5 		"/>
		<path fill="none" stroke="#A6A8AB" stroke-width="4" stroke-miterlimit="10" d="M409.6,48.2"/>
	</g>
	<path fill="none" stroke="#00ADEE" stroke-width="2" stroke-miterlimit="10" d="M427.7,57.6"/>
	<g>
		<path fill="#F7B93C" d="M452.7,12.3c4.7,4.8,4,8.4,4,8.4l-16.6,16.8l-19,19.2c0,0-0.5-4.7-4.6-8.8"/>
		<path fill="#FCC96D" d="M416.8,48c-4.1-4.2-7.7-3.6-7.7-3.6l19-19.2l16.6-16.8c0,0,3.5-0.7,8.3,4.1"/>
	</g>
	<path fill="none" stroke="#00ADEE" stroke-width="2" stroke-miterlimit="10" d="M427.7,27"/>
	<path fill="none" stroke="#EB008B" stroke-width="2" stroke-miterlimit="10" d="M432.4,20.9"/>
	<path fill="none" stroke="#FFFFFF" stroke-width="6" stroke-miterlimit="10" d="M449.4,32.4c0,0,0.9-4.7-5.3-11
		c-6.2-6.3-10.9-5.4-10.9-5.4"/>
	<path fill="none" stroke="#EB008B" stroke-width="2" stroke-miterlimit="10" d="M411,42.5"/>
</g>
<g>
	<path fill="#00ADEE" d="M556.2,50.4c0,23.2-18.8,42-42,42s-42-18.8-42-42s18.8-42,42-42S556.2,27.2,556.2,50.4z"/>
	<g>
		<path fill="none" stroke="#00ADEE" stroke-width="2" stroke-miterlimit="10" d="M512.7,70.5"/>
		<g>
			<path opacity="0.8" fill="#FFFFFF" d="M537.7,25.5c4.7,4.8,4,8.3,4,8.3l-16.6,16.7l-19,19.1c0,0-0.5-4.6-4.6-8.8"/>
			<path fill="#FFFFFF" d="M501.7,61c-4.1-4.2-7.7-3.6-7.7-3.6l19-19.1l16.6-16.7c0,0,3.6-0.7,8.3,4"/>
		</g>
		<path fill="none" stroke="#00ADEE" stroke-width="2" stroke-miterlimit="10" d="M512.7,40.1"/>
		<path fill="none" stroke="#EB008B" stroke-width="2" stroke-miterlimit="10" d="M517.4,34"/>
		<path fill="none" stroke="#00ADEE" stroke-width="4" stroke-miterlimit="10" d="M535.5,45.5c0,0,1-5-5.7-11.7
			c-6.7-6.7-11.7-5.7-11.7-5.7"/>
		<path fill="none" stroke="#EB008B" stroke-width="2" stroke-miterlimit="10" d="M496,55.5"/>
		<path fill="#FFFFFF" d="M506.2,69.5l-18.4,6l6.2-18.2c0,0,3.7-1.6,8.3,3.1C507.2,65.3,506.2,69.5,506.2,69.5z"/>
	</g>
</g>
<g>
	<path fill="#00ADEE" d="M380.2,50.4c0,23.2-18.8,42-42,42s-42-18.8-42-42s18.8-42,42-42S380.2,27.2,380.2,50.4z"/>
	<polygon fill="#FFFFFF" stroke="#FFFFFF" stroke-width="2" stroke-miterlimit="10" points="313.2,51.6 343.9,23.8 363.2,38.7 
		363.2,50.1 332.6,77.8 313.2,62.9 	"/>
	<polygon opacity="0.2" fill="#00ADEE" points="332.2,79.4 364.1,50.4 364.1,38.4 332.2,67.4 	"/>
</g>
<path fill="#00ADEE" d="M1468.2,50.4c0,23.2-18.8,42-42,42s-42-18.8-42-42s18.8-42,42-42S1468.2,27.2,1468.2,50.4z"/>
</svg>
